<?xml version="1.0" standalone="no"?>
<!DOCTYPE svg PUBLIC "-//W3C//DTD SVG 20010904//EN"
 "http://www.w3.org/TR/2001/REC-SVG-20010904/DTD/svg10.dtd">
<svg version="1.0" xmlns="http://www.w3.org/2000/svg"
 width="1220.000000pt" height="1022.000000pt" viewBox="0 0 1220.000000 1022.000000"
 preserveAspectRatio="xMidYMid meet">

<g transform="translate(0.000000,1022.000000) scale(0.100000,-0.100000)"
fill="#000000" stroke="none">
<path d="M4837 9363 c-56 -9 -168 -62 -221 -104 -146 -120 -196 -243 -196
-486 l0 -143 -387 0 c-358 0 -392 -1 -459 -20 -40 -12 -94 -33 -121 -47 -66
-36 -162 -137 -196 -203 -57 -113 -60 -137 -64 -506 l-5 -342 -236 -5 c-249
-5 -312 -14 -450 -67 -196 -75 -374 -218 -473 -380 -64 -104 -91 -169 -119
-287 -20 -84 -20 -112 -20 -2378 0 -2272 0 -2295 20 -2382 12 -48 24 -92 29
-97 5 -6 11 -36 15 -66 20 -158 131 -348 266 -454 116 -92 245 -145 403 -166
111 -14 5682 -14 5798 1 280 36 559 178 779 399 135 134 226 275 303 465 17
43 48 141 199 630 22 72 46 148 53 170 8 22 28 87 45 145 18 58 40 130 50 160
17 52 36 114 132 425 22 72 46 148 53 170 7 22 30 94 50 160 20 66 42 138 50
160 7 22 25 81 40 130 15 50 33 108 41 130 7 22 29 94 49 160 20 66 43 138 50
160 8 22 30 94 50 160 20 66 42 138 50 160 59 169 73 384 34 542 -11 47 -24
92 -29 101 -4 10 -20 42 -35 72 -72 146 -233 293 -380 347 -155 57 -141 56
-590 62 l-420 6 -5 1445 c-5 1518 -4 1480 -48 1549 -35 56 -85 111 -120 132
-70 43 -87 51 -147 73 l-60 21 -1875 1 c-1031 1 -1888 -1 -1903 -3z m3613
-451 c61 -32 87 -58 118 -117 l27 -50 3 -1303 2 -1302 -175 2 -175 3 -3 1025
c-3 1127 1 1061 -64 1190 -35 71 -143 177 -213 212 -124 61 -37 58 -1633 58
l-1459 0 4 136 c3 129 4 137 27 155 23 19 60 19 1760 17 l1736 -3 45 -23z
m-656 -733 l26 -20 0 -1010 0 -1009 -1917 -3 c-1904 -3 -1919 -3 -1993 -24
-96 -26 -164 -49 -200 -68 -15 -8 -30 -11 -34 -8 -3 4 -6 480 -6 1058 l0 1052
25 27 24 26 2024 0 2024 0 27 -21z m-4604 -1813 c0 -360 -3 -656 -7 -658 -14
-6 -109 -123 -150 -183 -75 -114 -126 -232 -199 -470 -20 -66 -51 -167 -70
-225 -18 -58 -49 -159 -70 -225 -20 -66 -51 -167 -70 -225 -18 -58 -49 -159
-69 -225 -20 -66 -43 -138 -50 -160 -8 -22 -32 -101 -55 -175 -62 -200 -67
-213 -71 -199 -2 8 -2 700 1 1539 l5 1525 32 66 c68 136 200 232 356 258 29 5
134 9 235 10 l182 1 0 -654z m6635 -744 c87 -40 133 -101 156 -205 14 -64 3
-154 -31 -257 -10 -30 -37 -116 -60 -190 -23 -74 -45 -146 -50 -160 -8 -24
-43 -138 -125 -405 -20 -66 -43 -138 -50 -160 -8 -22 -32 -101 -55 -175 -23
-74 -45 -146 -50 -160 -5 -14 -21 -65 -35 -115 -15 -49 -33 -108 -40 -130 -8
-22 -27 -83 -43 -135 -16 -52 -48 -153 -70 -225 -23 -71 -64 -204 -92 -295
-28 -91 -57 -183 -65 -205 -7 -22 -25 -80 -40 -130 -141 -464 -179 -547 -324
-695 -127 -129 -283 -217 -446 -251 -86 -18 -199 -19 -2882 -19 -3009 0 -2884
-2 -2967 50 -87 53 -126 133 -126 253 0 79 8 115 65 297 8 25 23 74 34 110 10
36 36 117 56 180 36 112 43 136 84 270 11 36 43 139 72 230 28 91 59 192 69
225 10 33 28 89 38 125 20 65 76 244 179 570 30 96 61 195 68 220 7 25 30 97
50 160 20 63 46 144 56 180 34 113 47 152 84 270 20 63 44 140 52 170 67 248
280 476 548 585 109 45 -1 44 3025 42 l2865 -2 50 -23z"/>
<path d="M4172 7540 c-56 -13 -102 -70 -102 -125 0 -39 34 -98 68 -117 28 -17
122 -18 1580 -18 l1549 0 27 21 c89 70 64 209 -43 239 -43 12 -3029 12 -3079
0z"/>
<path d="M4143 6845 c-36 -15 -73 -78 -73 -123 0 -16 10 -44 23 -63 46 -69
-76 -64 1602 -67 1015 -2 1532 1 1555 7 112 32 134 182 37 241 -31 20 -62 20
-1572 20 -1291 -1 -1545 -3 -1572 -15z"/>
</g>
</svg>
